<?xml version="1.0" encoding="UTF-8"?>
<svg id="Calque_2" data-name="Calque 2" xmlns="http://www.w3.org/2000/svg" viewBox="0 0 352.51 356.03">
  <defs>
    <style>
      .cls-1 {
        fill: #fff;
        stroke-width: 0px;
      }
    </style>
  </defs>
  <g id="Logo_variantes" data-name="Logo variantes">
    <g>
      <path class="cls-1" d="m89.23,25.24s-47.2,65.11-10.08,122.09c15.22,23.37,71.44,40.39,79.77,83.63,6.23,32.33-6.38,55.65-34.23,70.87C58.62,337.92,12.98,265.28,3.63,214.54-21.18,79.8,89.23,25.24,89.23,25.24Z"/>
      <path class="cls-1" d="m352.14,184.38s-29.78-74.7-97.78-73.79c-27.89.37-72.33,38.77-113.32,22.69-30.65-12.02-43.62-35.15-41.58-66.82C104.29-8.68,190.08-8.41,237.95,10.83c127.12,51.08,114.19,173.56,114.19,173.56Z"/>
      <path class="cls-1" d="m80.71,325.85s79.42,12.61,113.42-46.28c13.95-24.15,3.68-81.98,38.46-108.98,26.01-20.19,52.51-19.51,78.69-1.56,62.1,42.58,17.99,116.16-23.03,147.46-108.91,83.11-207.54,9.36-207.54,9.36Z"/>
    </g>
  </g>
</svg>