<?xml version="1.0" encoding="UTF-8"?>
<svg id="Calque_2" data-name="Calque 2" xmlns="http://www.w3.org/2000/svg" xmlns:xlink="http://www.w3.org/1999/xlink" viewBox="0 0 472.15 187.11">
  <defs>
    <style>
      .cls-1 {
        fill: url(#Dégradé_sans_nom_68-2);
      }

      .cls-1, .cls-2, .cls-3, .cls-4, .cls-5, .cls-6, .cls-7, .cls-8, .cls-9, .cls-10, .cls-11, .cls-12, .cls-13, .cls-14 {
        stroke-width: 0px;
      }

      .cls-2 {
        fill: url(#Dégradé_sans_nom_54-2);
      }

      .cls-3 {
        fill: url(#Dégradé_sans_nom_54-9);
      }

      .cls-4 {
        fill: url(#Dégradé_sans_nom_54-7);
      }

      .cls-5 {
        fill: url(#Dégradé_sans_nom_54-5);
      }

      .cls-6 {
        fill: url(#Dégradé_sans_nom_54-3);
      }

      .cls-7 {
        fill: #012268;
      }

      .cls-8 {
        fill: url(#Dégradé_sans_nom_68-3);
      }

      .cls-9 {
        fill: url(#Dégradé_sans_nom_54);
      }

      .cls-10 {
        fill: url(#Dégradé_sans_nom_54-8);
      }

      .cls-11 {
        fill: url(#Dégradé_sans_nom_54-6);
      }

      .cls-12 {
        fill: url(#Dégradé_sans_nom_54-4);
      }

      .cls-13 {
        fill: url(#Dégradé_sans_nom_54-10);
      }

      .cls-14 {
        fill: url(#Dégradé_sans_nom_68);
      }
    </style>
    <linearGradient id="Dégradé_sans_nom_54" data-name="Dégradé sans nom 54" x1="41.72" y1="136.73" x2="-.51" y2="63.6" gradientUnits="userSpaceOnUse">
      <stop offset="0" stop-color="#012268"/>
      <stop offset=".21" stop-color="#00266c" stop-opacity=".99"/>
      <stop offset=".41" stop-color="#00337a" stop-opacity=".98"/>
      <stop offset=".6" stop-color="#004992" stop-opacity=".95"/>
      <stop offset=".79" stop-color="#0068b3" stop-opacity=".91"/>
      <stop offset=".83" stop-color="#0071bc" stop-opacity=".9"/>
    </linearGradient>
    <linearGradient id="Dégradé_sans_nom_54-2" data-name="Dégradé sans nom 54" x1="90.07" y1="136.82" x2="47.67" y2="63.39" xlink:href="#Dégradé_sans_nom_54"/>
    <linearGradient id="Dégradé_sans_nom_54-3" data-name="Dégradé sans nom 54" x1="132.13" y1="145.64" x2="85.19" y2="64.34" xlink:href="#Dégradé_sans_nom_54"/>
    <linearGradient id="Dégradé_sans_nom_54-4" data-name="Dégradé sans nom 54" x1="184.26" y1="140.99" x2="137.04" y2="59.21" xlink:href="#Dégradé_sans_nom_54"/>
    <linearGradient id="Dégradé_sans_nom_54-5" data-name="Dégradé sans nom 54" x1="233.1" y1="142.21" x2="184.48" y2="57.99" xlink:href="#Dégradé_sans_nom_54"/>
    <linearGradient id="Dégradé_sans_nom_54-6" data-name="Dégradé sans nom 54" x1="268.21" y1="135.86" x2="226.93" y2="64.34" xlink:href="#Dégradé_sans_nom_54"/>
    <linearGradient id="Dégradé_sans_nom_54-7" data-name="Dégradé sans nom 54" x1="303.7" y1="136.73" x2="261.48" y2="63.6" xlink:href="#Dégradé_sans_nom_54"/>
    <linearGradient id="Dégradé_sans_nom_54-8" data-name="Dégradé sans nom 54" x1="373.32" y1="140.99" x2="326.1" y2="59.21" xlink:href="#Dégradé_sans_nom_54"/>
    <linearGradient id="Dégradé_sans_nom_54-9" data-name="Dégradé sans nom 54" x1="422.16" y1="142.21" x2="373.53" y2="57.99" xlink:href="#Dégradé_sans_nom_54"/>
    <linearGradient id="Dégradé_sans_nom_54-10" data-name="Dégradé sans nom 54" x1="471.7" y1="143.96" x2="423.27" y2="60.06" xlink:href="#Dégradé_sans_nom_54"/>
    <linearGradient id="Dégradé_sans_nom_68" data-name="Dégradé sans nom 68" x1="232.58" y1="37.03" x2="243.59" y2="37.03" gradientUnits="userSpaceOnUse">
      <stop offset="0" stop-color="#e63c02" stop-opacity=".9"/>
      <stop offset=".47" stop-color="#e63e02" stop-opacity=".9"/>
      <stop offset=".64" stop-color="#e74505" stop-opacity=".9"/>
      <stop offset=".76" stop-color="#ea5209" stop-opacity=".9"/>
      <stop offset=".86" stop-color="#ee650f" stop-opacity=".9"/>
      <stop offset=".94" stop-color="#f27d17" stop-opacity=".9"/>
      <stop offset="1" stop-color="#f7931e" stop-opacity=".9"/>
    </linearGradient>
    <linearGradient id="Dégradé_sans_nom_68-2" data-name="Dégradé sans nom 68" x1="238.09" y1="23.97" x2="262.24" y2="23.97" xlink:href="#Dégradé_sans_nom_68"/>
    <linearGradient id="Dégradé_sans_nom_68-3" data-name="Dégradé sans nom 68" x1="232.58" y1="37.03" y2="37.03" xlink:href="#Dégradé_sans_nom_68"/>
  </defs>
  <g id="Logo_principal" data-name="Logo principal">
    <path class="cls-9" d="m.19,123.08v-4.99h12.99v5.99c0,6.24,2.75,8.49,7.12,8.49s7.12-2.25,7.12-8.74c0-7.24-2.75-11.86-11.74-19.73C4.18,93.98.44,86.86.44,76.87c0-13.74,7.12-21.73,20.48-21.73s19.98,7.99,19.98,21.98v3.62h-12.99v-4.5c0-6.24-2.5-8.62-6.87-8.62s-6.87,2.37-6.87,8.37c0,6.37,2.87,10.99,11.86,18.86,11.49,10.12,15.11,17.11,15.11,27.97,0,14.24-7.24,22.23-20.73,22.23S.19,137.07.19,123.08Z"/>
    <path class="cls-2" d="m48.01,123.08v-45.96c0-13.99,7.37-21.98,20.85-21.98s20.85,7.99,20.85,21.98v45.96c0,13.99-7.37,21.98-20.85,21.98s-20.85-7.99-20.85-21.98Zm27.97.87v-47.7c0-6.24-2.75-8.62-7.12-8.62s-7.12,2.37-7.12,8.62v47.7c0,6.24,2.75,8.62,7.12,8.62s7.12-2.37,7.12-8.62Z"/>
    <path class="cls-6" d="m98.96,56.39h13.74v74.93h22.6v12.49h-36.34V56.39Z"/>
    <path class="cls-12" d="m141.92,56.39h37.46v12.49h-23.73v23.1h18.86v12.49h-18.86v26.85h23.73v12.49h-37.46V56.39Z"/>
    <path class="cls-5" d="m187.25,56.39h17.23l13.36,52.33h.25v-52.33h12.24v87.42h-14.11l-16.48-63.81h-.25v63.81h-12.24V56.39Z"/>
    <path class="cls-11" d="m240.7,56.39h13.74v87.42h-13.74V56.39Z"/>
    <path class="cls-4" d="m262.17,123.08v-4.99h12.99v5.99c0,6.24,2.75,8.49,7.12,8.49s7.12-2.25,7.12-8.74c0-7.24-2.75-11.86-11.74-19.73-11.49-10.12-15.24-17.23-15.24-27.22,0-13.74,7.12-21.73,20.48-21.73s19.98,7.99,19.98,21.98v3.62h-12.99v-4.5c0-6.24-2.5-8.62-6.87-8.62s-6.87,2.37-6.87,8.37c0,6.37,2.87,10.99,11.86,18.86,11.49,10.12,15.11,17.11,15.11,27.97,0,14.24-7.24,22.23-20.73,22.23s-20.23-7.99-20.23-21.98Z"/>
    <path class="cls-10" d="m330.98,56.39h37.46v12.49h-23.73v23.1h18.86v12.49h-18.86v26.85h23.73v12.49h-37.46V56.39Z"/>
    <path class="cls-3" d="m376.3,56.39h17.23l13.36,52.33h.25v-52.33h12.24v87.42h-14.11l-16.48-63.81h-.25v63.81h-12.24V56.39Z"/>
    <path class="cls-13" d="m429.62,56.39h20.36c14.24,0,20.36,6.62,20.36,20.11v5.37c0,8.99-2.87,14.74-8.99,17.23v.25c6.87,2.12,9.12,8.62,9.12,18.48v15.36c0,4.25.12,7.37,1.5,10.61h-13.99c-.75-2.25-1.25-3.62-1.25-10.74v-15.98c0-8.12-2.37-10.74-8.62-10.74h-4.75v37.46h-13.74V56.39Zm18.73,37.46c5.12,0,8.24-2.25,8.24-9.24v-6.74c0-6.24-2.12-8.99-6.99-8.99h-6.24v24.98h4.99Z"/>
    <g>
      <path class="cls-7" d="m6.17,181.25l-6.17-18.91h2.64l2.95,9.31c.81,2.55,1.52,4.85,2.02,7.07h.06c.53-2.19,1.32-4.57,2.16-7.04l3.2-9.34h2.61l-6.76,18.91h-2.69Z"/>
      <path class="cls-7" d="m28.95,174.35c0,5.02-3.48,7.21-6.76,7.21-3.68,0-6.51-2.69-6.51-6.98,0-4.54,2.97-7.21,6.73-7.21s6.54,2.83,6.54,6.99Zm-10.77.14c0,2.97,1.71,5.22,4.12,5.22s4.12-2.22,4.12-5.27c0-2.3-1.15-5.22-4.07-5.22s-4.18,2.69-4.18,5.27Z"/>
      <path class="cls-7" d="m35.04,163.77v3.9h3.54v1.88h-3.54v7.32c0,1.68.48,2.64,1.85,2.64.65,0,1.12-.08,1.43-.17l.11,1.85c-.48.2-1.23.34-2.19.34-1.15,0-2.08-.36-2.67-1.04-.7-.73-.95-1.94-.95-3.53v-7.41h-2.1v-1.88h2.1v-3.25l2.41-.65Z"/>
      <path class="cls-7" d="m41.35,171.9c0-1.6-.03-2.97-.11-4.24h2.16l.08,2.67h.11c.62-1.82,2.1-2.97,3.76-2.97.28,0,.48.03.7.09v2.33c-.25-.06-.5-.08-.84-.08-1.74,0-2.97,1.32-3.31,3.17-.06.34-.11.73-.11,1.15v7.24h-2.44v-9.34Z"/>
      <path class="cls-7" d="m51.62,174.91c.06,3.34,2.19,4.71,4.66,4.71,1.77,0,2.83-.31,3.76-.7l.42,1.77c-.87.39-2.36.84-4.52.84-4.18,0-6.68-2.75-6.68-6.85s2.41-7.32,6.37-7.32c4.43,0,5.61,3.9,5.61,6.4,0,.51-.06.9-.08,1.15h-9.54Zm7.24-1.77c.03-1.57-.65-4.01-3.42-4.01-2.5,0-3.59,2.3-3.79,4.01h7.21Z"/>
      <path class="cls-7" d="m70.25,172.1c0-1.74-.06-3.14-.11-4.43h2.22l.11,2.33h.06c1.01-1.66,2.61-2.64,4.83-2.64,3.28,0,5.75,2.78,5.75,6.9,0,4.88-2.97,7.29-6.17,7.29-1.8,0-3.37-.78-4.18-2.13h-.06v7.38h-2.44v-14.7Zm2.44,3.62c0,.36.06.7.11,1.01.45,1.71,1.94,2.89,3.7,2.89,2.61,0,4.12-2.13,4.12-5.25,0-2.72-1.43-5.05-4.04-5.05-1.68,0-3.25,1.21-3.73,3.06-.08.31-.17.67-.17,1.01v2.33Z"/>
      <path class="cls-7" d="m93.73,181.25l-.2-1.71h-.08c-.76,1.07-2.22,2.02-4.15,2.02-2.75,0-4.15-1.94-4.15-3.9,0-3.28,2.92-5.08,8.16-5.05v-.28c0-1.12-.31-3.14-3.09-3.14-1.26,0-2.58.39-3.53,1.01l-.56-1.63c1.12-.73,2.75-1.21,4.46-1.21,4.15,0,5.16,2.83,5.16,5.56v5.08c0,1.18.06,2.33.22,3.25h-2.24Zm-.36-6.93c-2.69-.06-5.75.42-5.75,3.06,0,1.6,1.07,2.36,2.33,2.36,1.77,0,2.89-1.12,3.28-2.27.08-.25.14-.53.14-.78v-2.36Z"/>
      <path class="cls-7" d="m99.74,171.9c0-1.6-.03-2.97-.11-4.24h2.16l.08,2.67h.11c.62-1.82,2.1-2.97,3.76-2.97.28,0,.48.03.7.09v2.33c-.25-.06-.51-.08-.84-.08-1.74,0-2.97,1.32-3.31,3.17-.06.34-.11.73-.11,1.15v7.24h-2.44v-9.34Z"/>
      <path class="cls-7" d="m112.56,163.77v3.9h3.54v1.88h-3.54v7.32c0,1.68.48,2.64,1.85,2.64.65,0,1.12-.08,1.43-.17l.11,1.85c-.48.2-1.23.34-2.19.34-1.15,0-2.08-.36-2.66-1.04-.7-.73-.95-1.94-.95-3.53v-7.41h-2.1v-1.88h2.1v-3.25l2.41-.65Z"/>
      <path class="cls-7" d="m120.08,174.91c.06,3.34,2.19,4.71,4.66,4.71,1.77,0,2.83-.31,3.76-.7l.42,1.77c-.87.39-2.36.84-4.52.84-4.18,0-6.68-2.75-6.68-6.85s2.41-7.32,6.37-7.32c4.43,0,5.61,3.9,5.61,6.4,0,.51-.06.9-.08,1.15h-9.54Zm7.24-1.77c.03-1.57-.65-4.01-3.42-4.01-2.5,0-3.59,2.3-3.79,4.01h7.21Z"/>
      <path class="cls-7" d="m132.76,171.34c0-1.4-.03-2.55-.11-3.68h2.19l.14,2.24h.06c.67-1.29,2.24-2.55,4.49-2.55,1.88,0,4.8,1.12,4.8,5.78v8.11h-2.47v-7.83c0-2.19-.81-4.01-3.14-4.01-1.63,0-2.89,1.15-3.31,2.53-.11.31-.17.73-.17,1.15v8.16h-2.47v-9.9Z"/>
      <path class="cls-7" d="m155.85,181.25l-.2-1.71h-.08c-.76,1.07-2.22,2.02-4.15,2.02-2.75,0-4.15-1.94-4.15-3.9,0-3.28,2.92-5.08,8.16-5.05v-.28c0-1.12-.31-3.14-3.09-3.14-1.26,0-2.58.39-3.54,1.01l-.56-1.63c1.12-.73,2.75-1.21,4.46-1.21,4.15,0,5.16,2.83,5.16,5.56v5.08c0,1.18.06,2.33.22,3.25h-2.24Zm-.36-6.93c-2.69-.06-5.75.42-5.75,3.06,0,1.6,1.07,2.36,2.33,2.36,1.77,0,2.89-1.12,3.28-2.27.08-.25.14-.53.14-.78v-2.36Z"/>
      <path class="cls-7" d="m164.6,163.85c.03.84-.59,1.51-1.57,1.51-.87,0-1.49-.67-1.49-1.51s.65-1.54,1.54-1.54,1.51.67,1.51,1.54Zm-2.75,17.39v-13.58h2.47v13.58h-2.47Z"/>
      <path class="cls-7" d="m168.42,171.9c0-1.6-.03-2.97-.11-4.24h2.16l.08,2.67h.11c.62-1.82,2.1-2.97,3.76-2.97.28,0,.48.03.7.09v2.33c-.25-.06-.5-.08-.84-.08-1.74,0-2.97,1.32-3.31,3.17-.06.34-.11.73-.11,1.15v7.24h-2.44v-9.34Z"/>
      <path class="cls-7" d="m178.69,174.91c.06,3.34,2.19,4.71,4.66,4.71,1.77,0,2.83-.31,3.76-.7l.42,1.77c-.87.39-2.36.84-4.52.84-4.18,0-6.68-2.75-6.68-6.85s2.41-7.32,6.37-7.32c4.43,0,5.61,3.9,5.61,6.4,0,.51-.06.9-.08,1.15h-9.54Zm7.24-1.77c.03-1.57-.64-4.01-3.42-4.01-2.5,0-3.59,2.3-3.79,4.01h7.21Z"/>
      <path class="cls-7" d="m198.69,174.91c.06,3.34,2.19,4.71,4.66,4.71,1.77,0,2.83-.31,3.76-.7l.42,1.77c-.87.39-2.36.84-4.52.84-4.18,0-6.68-2.75-6.68-6.85s2.41-7.32,6.37-7.32c4.43,0,5.61,3.9,5.61,6.4,0,.51-.06.9-.08,1.15h-9.54Zm7.24-1.77c.03-1.57-.64-4.01-3.42-4.01-2.5,0-3.59,2.3-3.79,4.01h7.21Z"/>
      <path class="cls-7" d="m211.37,171.34c0-1.4-.03-2.55-.11-3.68h2.19l.14,2.24h.06c.67-1.29,2.24-2.55,4.49-2.55,1.88,0,4.8,1.12,4.8,5.78v8.11h-2.47v-7.83c0-2.19-.81-4.01-3.14-4.01-1.63,0-2.89,1.15-3.31,2.53-.11.31-.17.73-.17,1.15v8.16h-2.47v-9.9Z"/>
      <path class="cls-7" d="m234.26,174.91c.06,3.34,2.19,4.71,4.66,4.71,1.77,0,2.83-.31,3.76-.7l.42,1.77c-.87.39-2.36.84-4.52.84-4.18,0-6.68-2.75-6.68-6.85s2.41-7.32,6.37-7.32c4.43,0,5.61,3.9,5.61,6.4,0,.51-.06.9-.08,1.15h-9.54Zm7.24-1.77c.03-1.57-.64-4.01-3.42-4.01-2.5,0-3.59,2.3-3.79,4.01h7.21Zm.59-11.33l-3.42,4.01h-1.77l2.47-4.01h2.72Z"/>
      <path class="cls-7" d="m256.62,180.74c-.65.34-2.08.79-3.9.79-4.1,0-6.76-2.78-6.76-6.93s2.86-7.21,7.29-7.21c1.46,0,2.75.36,3.42.7l-.56,1.91c-.59-.34-1.51-.65-2.86-.65-3.11,0-4.8,2.3-4.8,5.13,0,3.14,2.02,5.08,4.71,5.08,1.4,0,2.33-.36,3.03-.67l.42,1.85Z"/>
      <path class="cls-7" d="m271.63,174.35c0,5.02-3.48,7.21-6.76,7.21-3.67,0-6.51-2.69-6.51-6.98,0-4.54,2.97-7.21,6.73-7.21s6.54,2.83,6.54,6.99Zm-10.77.14c0,2.97,1.71,5.22,4.12,5.22s4.12-2.22,4.12-5.27c0-2.3-1.15-5.22-4.07-5.22s-4.18,2.69-4.18,5.27Z"/>
      <path class="cls-7" d="m274.75,171.34c0-1.4-.03-2.55-.11-3.68h2.19l.14,2.24h.06c.67-1.29,2.24-2.55,4.49-2.55,1.88,0,4.8,1.12,4.8,5.78v8.11h-2.47v-7.83c0-2.19-.81-4.01-3.14-4.01-1.63,0-2.89,1.15-3.31,2.53-.11.31-.17.73-.17,1.15v8.16h-2.47v-9.9Z"/>
      <path class="cls-7" d="m302.61,174.35c0,5.02-3.48,7.21-6.76,7.21-3.67,0-6.51-2.69-6.51-6.98,0-4.54,2.97-7.21,6.73-7.21s6.54,2.83,6.54,6.99Zm-10.77.14c0,2.97,1.71,5.22,4.12,5.22s4.12-2.22,4.12-5.27c0-2.3-1.15-5.22-4.07-5.22s-4.18,2.69-4.18,5.27Z"/>
      <path class="cls-7" d="m305.72,171.34c0-1.4-.03-2.55-.11-3.68h2.16l.11,2.19h.08c.76-1.29,2.02-2.5,4.26-2.5,1.85,0,3.25,1.12,3.84,2.72h.06c.42-.76.95-1.35,1.51-1.77.81-.62,1.71-.95,3-.95,1.8,0,4.46,1.18,4.46,5.89v8h-2.41v-7.69c0-2.61-.95-4.18-2.95-4.18-1.4,0-2.5,1.04-2.92,2.24-.11.34-.2.79-.2,1.23v8.39h-2.41v-8.14c0-2.16-.95-3.73-2.83-3.73-1.54,0-2.67,1.23-3.06,2.47-.14.36-.2.79-.2,1.21v8.19h-2.41v-9.9Z"/>
      <path class="cls-7" d="m331.87,163.85c.03.84-.59,1.51-1.57,1.51-.87,0-1.49-.67-1.49-1.51s.65-1.54,1.54-1.54,1.51.67,1.51,1.54Zm-2.75,17.39v-13.58h2.47v13.58h-2.47Z"/>
      <path class="cls-7" d="m337.06,174.91c.06,3.34,2.19,4.71,4.66,4.71,1.77,0,2.83-.31,3.76-.7l.42,1.77c-.87.39-2.36.84-4.52.84-4.18,0-6.68-2.75-6.68-6.85s2.41-7.32,6.37-7.32c4.43,0,5.61,3.9,5.61,6.4,0,.51-.06.9-.08,1.15h-9.54Zm7.24-1.77c.03-1.57-.64-4.01-3.42-4.01-2.5,0-3.59,2.3-3.79,4.01h7.21Z"/>
      <path class="cls-7" d="m349.41,178.72c.73.48,2.02.98,3.25.98,1.8,0,2.64-.9,2.64-2.02,0-1.18-.7-1.82-2.53-2.5-2.44-.87-3.59-2.22-3.59-3.84,0-2.19,1.77-3.98,4.68-3.98,1.38,0,2.58.39,3.34.84l-.62,1.8c-.53-.34-1.51-.79-2.78-.79-1.46,0-2.27.84-2.27,1.85,0,1.12.81,1.63,2.58,2.3,2.36.9,3.56,2.08,3.56,4.1,0,2.38-1.85,4.07-5.08,4.07-1.49,0-2.86-.36-3.82-.93l.62-1.88Z"/>
      <path class="cls-7" d="m378.53,161.33v16.41c0,1.21.03,2.58.11,3.51h-2.22l-.11-2.36h-.06c-.76,1.52-2.41,2.67-4.63,2.67-3.28,0-5.81-2.78-5.81-6.9-.03-4.52,2.78-7.29,6.09-7.29,2.08,0,3.48.98,4.1,2.08h.06v-8.11h2.47Zm-2.47,11.87c0-.31-.03-.73-.11-1.04-.36-1.57-1.71-2.86-3.56-2.86-2.55,0-4.07,2.24-4.07,5.25,0,2.75,1.35,5.02,4.01,5.02,1.66,0,3.17-1.09,3.62-2.95.08-.34.11-.67.11-1.07v-2.36Z"/>
      <path class="cls-7" d="m385.91,162.03c-.65,2.36-1.85,5.36-2.64,6.65l-1.57.2c.62-1.66,1.35-4.57,1.66-6.59l2.55-.25Z"/>
      <path class="cls-7" d="m387.81,174.91c.06,3.34,2.19,4.71,4.66,4.71,1.77,0,2.83-.31,3.76-.7l.42,1.77c-.87.39-2.36.84-4.52.84-4.18,0-6.68-2.75-6.68-6.85s2.41-7.32,6.37-7.32c4.43,0,5.61,3.9,5.61,6.4,0,.51-.06.9-.08,1.15h-9.54Zm7.24-1.77c.03-1.57-.65-4.01-3.42-4.01-2.5,0-3.59,2.3-3.79,4.01h7.21Zm.59-11.33l-3.42,4.01h-1.77l2.47-4.01h2.72Z"/>
      <path class="cls-7" d="m400.49,171.34c0-1.4-.03-2.55-.11-3.68h2.19l.14,2.24h.06c.67-1.29,2.24-2.55,4.49-2.55,1.88,0,4.8,1.12,4.8,5.78v8.11h-2.47v-7.83c0-2.19-.81-4.01-3.14-4.01-1.63,0-2.89,1.15-3.31,2.53-.11.31-.17.73-.17,1.15v8.16h-2.47v-9.9Z"/>
      <path class="cls-7" d="m417.44,174.91c.06,3.34,2.19,4.71,4.66,4.71,1.77,0,2.83-.31,3.76-.7l.42,1.77c-.87.39-2.36.84-4.52.84-4.18,0-6.68-2.75-6.68-6.85s2.41-7.32,6.37-7.32c4.43,0,5.61,3.9,5.61,6.4,0,.51-.06.9-.08,1.15h-9.54Zm7.24-1.77c.03-1.57-.65-4.01-3.42-4.01-2.5,0-3.59,2.3-3.79,4.01h7.21Z"/>
      <path class="cls-7" d="m430.12,171.9c0-1.6-.03-2.97-.11-4.24h2.16l.08,2.67h.11c.62-1.82,2.1-2.97,3.76-2.97.28,0,.48.03.7.09v2.33c-.25-.06-.51-.08-.84-.08-1.74,0-2.97,1.32-3.31,3.17-.06.34-.11.73-.11,1.15v7.24h-2.44v-9.34Z"/>
      <path class="cls-7" d="m450.77,167.67c-.06.98-.11,2.08-.11,3.73v7.88c0,3.11-.62,5.02-1.94,6.2-1.32,1.23-3.23,1.63-4.94,1.63s-3.42-.39-4.52-1.12l.62-1.88c.9.56,2.3,1.07,3.98,1.07,2.52,0,4.38-1.32,4.38-4.74v-1.51h-.06c-.76,1.26-2.22,2.27-4.32,2.27-3.37,0-5.78-2.86-5.78-6.62,0-4.6,3-7.21,6.12-7.21,2.36,0,3.65,1.23,4.24,2.36h.06l.11-2.05h2.16Zm-2.55,5.36c0-.42-.03-.78-.14-1.12-.45-1.43-1.66-2.61-3.45-2.61-2.36,0-4.04,1.99-4.04,5.13,0,2.66,1.35,4.88,4.01,4.88,1.52,0,2.89-.95,3.42-2.53.14-.42.2-.9.2-1.32v-2.44Z"/>
      <path class="cls-7" d="m457.34,163.85c.03.84-.59,1.51-1.57,1.51-.87,0-1.49-.67-1.49-1.51s.65-1.54,1.54-1.54,1.51.67,1.51,1.54Zm-2.75,17.39v-13.58h2.47v13.58h-2.47Z"/>
      <path class="cls-7" d="m462.53,174.91c.06,3.34,2.19,4.71,4.66,4.71,1.77,0,2.83-.31,3.76-.7l.42,1.77c-.87.39-2.36.84-4.52.84-4.18,0-6.68-2.75-6.68-6.85s2.41-7.32,6.37-7.32c4.43,0,5.61,3.9,5.61,6.4,0,.51-.06.9-.08,1.15h-9.54Zm7.24-1.77c.03-1.57-.64-4.01-3.42-4.01-2.5,0-3.59,2.3-3.79,4.01h7.21Z"/>
    </g>
    <g>
      <path class="cls-14" d="m237.64,28.3c0-.33.02-.66,0-.98-.06-.77-.78-1.23-1.44-.84-.68.4-1.36.86-1.88,1.43-1.72,1.9-2.05,4.17-1.48,6.6.41,1.74,1.38,3.17,2.51,4.53.85,1.03,1.66,2.11,2.34,3.25.72,1.2.69,2.56.48,3.91-.08.49-.12.98.35,1.32.44.32.89.19,1.32-.04,2.32-1.23,3.53-3.19,3.72-5.77.18-2.46-.65-4.64-2.12-6.57-.76-1-1.64-1.92-2.47-2.87-.98-1.14-1.39-2.49-1.33-3.98Z"/>
      <path class="cls-1" d="m248.63,0c.6.29.78.75.7,1.41-.3,2.46-.35,4.91.22,7.35.42,1.77,1.3,3.31,2.45,4.68,1.5,1.79,3.12,3.49,4.63,5.28,2.64,3.14,4.51,6.7,5.26,10.76.79,4.24.29,8.3-2.01,12.03-1.98,3.22-4.8,5.36-8.47,6.33-.09.02-.17.07-.25.1h-.56c-.74-.44-.84-.66-.65-1.53.4-1.82.64-3.65.66-5.51.02-3.04-1.1-5.67-2.88-8.04-1.43-1.91-2.95-3.75-4.47-5.59-2.32-2.83-4.03-5.96-4.77-9.56-.63-3.1-.54-6.18.62-9.16,1.59-4.11,4.41-6.99,8.64-8.4.11-.04.22-.1.33-.15.19,0,.37,0,.56,0Z"/>
      <path class="cls-8" d="m237.64,28.3c-.05,1.49.35,2.83,1.33,3.98.82.96,1.7,1.87,2.47,2.87,1.47,1.93,2.31,4.1,2.12,6.57-.19,2.58-1.4,4.54-3.72,5.77-.43.23-.88.36-1.32.04-.47-.34-.43-.83-.35-1.32.21-1.35.24-2.72-.48-3.91-.69-1.14-1.49-2.23-2.34-3.25-1.13-1.36-2.1-2.79-2.51-4.53-.57-2.43-.24-4.7,1.48-6.6.52-.58,1.21-1.03,1.88-1.43.66-.39,1.38.07,1.44.84.03.33,0,.65,0,.98Z"/>
    </g>
  </g>
</svg>