<?xml version="1.0" encoding="UTF-8"?>
<svg id="Calque_2" data-name="Calque 2" xmlns="http://www.w3.org/2000/svg" viewBox="0 0 472.13 187.43">
  <defs>
    <style>
      .cls-1 {
        fill: #fff;
        stroke-width: 0px;
      }
    </style>
  </defs>
  <g id="Logo_variantes" data-name="Logo variantes">
    <path class="cls-1" d="m.25,122.67v-4.99s13,.02,13,.02v5.99c-.02,6.24,2.72,8.5,7.09,8.5s7.12-2.24,7.13-8.73c.01-7.24-2.73-11.87-11.71-19.75C4.3,93.58.56,86.46.58,76.47c.02-13.74,7.15-21.72,20.52-21.7,13.36.02,19.97,8.02,19.94,22.01v3.62s-12.99-.02-12.99-.02v-4.5c.02-6.24-2.48-8.62-6.85-8.63-4.37,0-6.87,2.36-6.88,8.36-.01,6.37,2.85,10.99,11.83,18.88,11.47,10.13,15.08,17.13,15.06,28-.02,14.24-7.28,22.22-20.77,22.19S.23,136.66.25,122.67Z"/>
    <path class="cls-1" d="m48.08,122.75l.07-45.96c.02-13.99,7.4-21.97,20.89-21.94s20.84,8.03,20.82,22.01l-.07,45.96c-.02,13.99-7.4,21.97-20.89,21.95s-20.84-8.03-20.82-22.01Zm27.97.92l.08-47.7c.01-6.24-2.73-8.62-7.1-8.63s-7.12,2.36-7.13,8.6l-.08,47.7c-.01,6.24,2.73,8.62,7.1,8.63s7.12-2.36,7.13-8.61Z"/>
    <path class="cls-1" d="m99.14,56.15l13.74.02-.12,74.93,22.6.04-.02,12.49-36.34-.06.14-87.42Z"/>
    <path class="cls-1" d="m142.09,56.22l37.46.06-.02,12.49-23.73-.04-.04,23.1,18.86.03-.02,12.49-18.86-.03-.04,26.85,23.73.04-.02,12.49-37.46-.06.14-87.42Z"/>
    <path class="cls-1" d="m187.42,56.29l17.23.03,13.28,52.35h.25s.09-52.33.09-52.33l12.24.02-.14,87.42-14.11-.02-16.38-63.84h-.25s-.1,63.81-.1,63.81l-12.24-.02.14-87.42Z"/>
    <path class="cls-1" d="m240.88,56.38l13.74.02-.14,87.42-13.74-.02.14-87.42Z"/>
    <path class="cls-1" d="m262.24,123.1v-4.99s13,.02,13,.02v5.99c-.02,6.24,2.72,8.5,7.09,8.5s7.12-2.24,7.13-8.73c.01-7.24-2.73-11.87-11.71-19.75-11.47-10.13-15.21-17.26-15.19-27.25.02-13.74,7.15-21.72,20.52-21.7,13.36.02,19.97,8.02,19.95,22.01v3.62s-12.99-.02-12.99-.02v-4.5c.02-6.24-2.48-8.62-6.85-8.63s-6.87,2.36-6.88,8.36c-.01,6.37,2.85,10.99,11.83,18.88,11.47,10.13,15.08,17.13,15.06,28-.02,14.24-7.28,22.22-20.77,22.19s-20.22-8.03-20.19-22.01Z"/>
    <path class="cls-1" d="m331.15,56.53l37.46.06-.02,12.49-23.73-.04-.04,23.1,18.86.03-.02,12.49-18.86-.03-.04,26.85,23.73.04-.02,12.49-37.46-.06.14-87.42Z"/>
    <path class="cls-1" d="m376.48,56.6l17.23.03,13.28,52.35h.25s.09-52.33.09-52.33l12.24.02-.14,87.42-14.11-.02-16.38-63.84h-.25s-.1,63.81-.1,63.81l-12.24-.02.14-87.42Z"/>
    <path class="cls-1" d="m429.8,56.69l20.36.03c14.24.02,20.34,6.65,20.32,20.14v5.37c-.02,8.99-2.91,14.73-9.03,17.22v.25c6.86,2.13,9.1,8.63,9.09,18.5l-.03,15.36c0,4.25.11,7.37,1.48,10.62l-13.99-.02c-.75-2.25-1.24-3.62-1.23-10.74l.03-15.98c.01-8.12-2.35-10.74-8.6-10.75h-4.75s-.06,37.46-.06,37.46l-13.74-.02.14-87.42Zm18.67,37.49c5.12,0,8.25-2.23,8.26-9.23v-6.74c.02-6.24-2.1-8.99-6.97-9h-6.24s-.04,24.97-.04,24.97h4.99Z"/>
    <g>
      <path class="cls-1" d="m6.14,180.85l-6.14-18.92h2.64s2.93,9.32,2.93,9.32c.81,2.55,1.51,4.86,2.01,7.07h.06c.54-2.19,1.33-4.57,2.17-7.04l3.21-9.34h2.61s-6.79,18.9-6.79,18.9h-2.69Z"/>
      <path class="cls-1" d="m28.93,173.99c0,5.02-3.49,7.2-6.77,7.2-3.68,0-6.5-2.7-6.5-7,0-4.54,2.99-7.21,6.74-7.2s6.53,2.84,6.52,7Zm-10.77.12c0,2.97,1.7,5.22,4.12,5.22,2.36,0,4.13-2.21,4.13-5.27,0-2.3-1.14-5.22-4.06-5.22-2.92,0-4.18,2.69-4.19,5.27Z"/>
      <path class="cls-1" d="m35.04,163.42v3.9s3.53,0,3.53,0v1.88s-3.54,0-3.54,0v7.32c-.01,1.68.46,2.64,1.84,2.64.65,0,1.12-.08,1.43-.17l.11,1.85c-.48.2-1.23.34-2.19.33-1.15,0-2.08-.37-2.66-1.04-.7-.73-.95-1.94-.95-3.54v-7.41s-2.09,0-2.09,0v-1.88s2.11,0,2.11,0v-3.25s2.42-.64,2.42-.64Z"/>
      <path class="cls-1" d="m41.34,171.57c0-1.6-.02-2.97-.11-4.24h2.16s.08,2.67.08,2.67h.11c.62-1.82,2.11-2.97,3.76-2.97.28,0,.48.03.7.09v2.33c-.26-.06-.51-.08-.85-.09-1.74,0-2.98,1.31-3.32,3.16-.06.34-.11.73-.11,1.15v7.24s-2.45,0-2.45,0l.02-9.34Z"/>
      <path class="cls-1" d="m51.6,174.59c.05,3.34,2.18,4.72,4.65,4.72,1.77,0,2.83-.3,3.76-.69l.42,1.77c-.87.39-2.36.84-4.52.84-4.18,0-6.67-2.76-6.67-6.86s2.42-7.32,6.38-7.31c4.43,0,5.6,3.91,5.6,6.41,0,.51-.06.9-.09,1.15l-9.54-.02Zm7.24-1.75c.03-1.57-.64-4.01-3.42-4.02-2.5,0-3.59,2.29-3.79,4.01h7.21Z"/>
      <path class="cls-1" d="m70.24,171.81c0-1.74-.05-3.14-.1-4.43h2.22s.11,2.33.11,2.33h.06c1.01-1.65,2.61-2.63,4.83-2.63,3.28,0,5.75,2.79,5.74,6.91,0,4.88-2.99,7.29-6.18,7.28-1.8,0-3.37-.79-4.18-2.14h-.06s-.01,7.38-.01,7.38h-2.44s.02-14.7.02-14.7Zm2.43,3.62c0,.36.05.7.11,1.01.45,1.71,1.93,2.89,3.7,2.89,2.61,0,4.13-2.12,4.13-5.24,0-2.72-1.42-5.05-4.03-5.06-1.68,0-3.26,1.2-3.74,3.05-.09.31-.17.67-.17,1.01v2.33Z"/>
      <path class="cls-1" d="m93.7,180.99l-.19-1.71h-.08c-.76,1.06-2.22,2.02-4.16,2.01-2.75,0-4.15-1.94-4.15-3.91,0-3.28,2.93-5.07,8.17-5.04v-.28c0-1.12-.3-3.14-3.08-3.15-1.26,0-2.58.39-3.54,1l-.56-1.63c1.12-.73,2.75-1.2,4.46-1.2,4.15,0,5.16,2.84,5.15,5.56v5.08c-.01,1.18.04,2.33.21,3.26h-2.24Zm-.35-6.93c-2.69-.06-5.75.41-5.76,3.05,0,1.6,1.06,2.36,2.32,2.36,1.77,0,2.89-1.12,3.29-2.27.08-.25.14-.53.14-.78v-2.36Z"/>
      <path class="cls-1" d="m99.72,171.66c0-1.6-.02-2.97-.11-4.24h2.16s.08,2.67.08,2.67h.11c.62-1.82,2.11-2.97,3.76-2.97.28,0,.48.03.7.09v2.33c-.26-.06-.51-.08-.85-.09-1.74,0-2.98,1.31-3.32,3.16-.06.34-.11.73-.11,1.15v7.24s-2.45,0-2.45,0l.02-9.34Z"/>
      <path class="cls-1" d="m112.56,163.55v3.9s3.53,0,3.53,0v1.88s-3.54,0-3.54,0v7.32c-.01,1.68.46,2.64,1.84,2.64.65,0,1.12-.08,1.43-.17l.11,1.85c-.48.2-1.23.34-2.19.33-1.15,0-2.08-.37-2.66-1.04-.7-.73-.95-1.94-.95-3.54v-7.41s-2.09,0-2.09,0v-1.88s2.11,0,2.11,0v-3.25s2.42-.64,2.42-.64Z"/>
      <path class="cls-1" d="m120.06,174.7c.05,3.34,2.18,4.72,4.65,4.72,1.77,0,2.83-.3,3.76-.69l.42,1.77c-.87.39-2.36.84-4.52.84-4.18,0-6.67-2.76-6.67-6.86s2.42-7.32,6.38-7.31c4.43,0,5.6,3.91,5.6,6.41,0,.51-.06.9-.09,1.15l-9.54-.02Zm7.24-1.75c.03-1.57-.64-4.01-3.42-4.02-2.5,0-3.59,2.29-3.79,4.01h7.21Z"/>
      <path class="cls-1" d="m132.74,171.16c0-1.4-.02-2.55-.11-3.68h2.19s.14,2.25.14,2.25h.06c.68-1.29,2.25-2.55,4.49-2.55,1.88,0,4.8,1.13,4.79,5.79v8.11s-2.48,0-2.48,0v-7.83c.02-2.19-.79-4.01-3.12-4.02-1.63,0-2.89,1.15-3.31,2.52-.11.31-.17.73-.17,1.15v8.16s-2.48,0-2.48,0l.02-9.9Z"/>
      <path class="cls-1" d="m155.82,181.1l-.19-1.71h-.08c-.76,1.06-2.22,2.02-4.16,2.01-2.75,0-4.15-1.94-4.15-3.91,0-3.28,2.93-5.07,8.17-5.04v-.28c0-1.12-.3-3.14-3.08-3.15-1.26,0-2.58.39-3.54,1l-.56-1.63c1.12-.73,2.75-1.2,4.46-1.2,4.15,0,5.16,2.84,5.15,5.56v5.08c-.01,1.18.04,2.33.21,3.26h-2.24Zm-.35-6.93c-2.69-.06-5.75.41-5.76,3.05,0,1.6,1.06,2.36,2.32,2.36,1.77,0,2.89-1.12,3.29-2.27.08-.25.14-.53.14-.78v-2.36Z"/>
      <path class="cls-1" d="m164.6,163.72c.03.84-.59,1.51-1.57,1.51-.87,0-1.49-.68-1.48-1.52s.65-1.54,1.55-1.54,1.51.68,1.51,1.55Zm-2.78,17.39l.02-13.58h2.47s-.02,13.58-.02,13.58h-2.47Z"/>
      <path class="cls-1" d="m168.4,171.77c0-1.6-.02-2.97-.11-4.24h2.16s.08,2.67.08,2.67h.11c.62-1.82,2.11-2.97,3.76-2.97.28,0,.48.03.7.09v2.33c-.26-.06-.51-.08-.85-.09-1.74,0-2.98,1.31-3.32,3.16-.06.34-.11.73-.11,1.15v7.24s-2.45,0-2.45,0l.02-9.34Z"/>
      <path class="cls-1" d="m178.67,174.79c.05,3.34,2.18,4.72,4.65,4.72,1.77,0,2.83-.3,3.76-.69l.42,1.77c-.87.39-2.36.84-4.52.84-4.18,0-6.67-2.76-6.67-6.86s2.42-7.32,6.38-7.31c4.43,0,5.6,3.91,5.6,6.41,0,.51-.06.9-.09,1.15l-9.54-.02Zm7.24-1.75c.03-1.57-.64-4.01-3.42-4.02-2.5,0-3.59,2.29-3.79,4.01h7.21Z"/>
      <path class="cls-1" d="m198.67,174.83c.05,3.34,2.18,4.72,4.65,4.72,1.77,0,2.83-.3,3.76-.69l.42,1.77c-.87.39-2.36.84-4.52.84-4.18,0-6.67-2.76-6.67-6.86s2.42-7.32,6.38-7.31c4.43,0,5.6,3.91,5.6,6.41,0,.51-.06.9-.09,1.15l-9.54-.02Zm7.24-1.75c.03-1.57-.64-4.01-3.42-4.02-2.5,0-3.59,2.29-3.79,4.01h7.21Z"/>
      <path class="cls-1" d="m211.36,171.28c0-1.4-.02-2.55-.11-3.68h2.19s.14,2.25.14,2.25h.06c.68-1.29,2.25-2.55,4.49-2.55,1.88,0,4.8,1.13,4.79,5.79v8.11s-2.48,0-2.48,0v-7.83c.02-2.19-.79-4.01-3.12-4.02-1.63,0-2.89,1.15-3.31,2.52-.11.31-.17.73-.17,1.15v8.16s-2.48,0-2.48,0l.02-9.9Z"/>
      <path class="cls-1" d="m234.24,174.88c.05,3.34,2.18,4.72,4.65,4.72,1.77,0,2.83-.3,3.76-.69l.42,1.77c-.87.39-2.36.84-4.52.84-4.18,0-6.67-2.76-6.67-6.86,0-4.1,2.42-7.32,6.38-7.31,4.43,0,5.6,3.91,5.6,6.41,0,.51-.06.9-.09,1.15l-9.54-.02Zm7.24-1.75c.03-1.57-.64-4.01-3.42-4.02-2.5,0-3.59,2.29-3.79,4.01h7.21Zm.61-11.33l-3.43,4.01h-1.77s2.48-4.01,2.48-4.01h2.72Z"/>
      <path class="cls-1" d="m256.59,180.76c-.65.34-2.08.78-3.9.78-4.1,0-6.76-2.79-6.75-6.94,0-4.18,2.87-7.2,7.31-7.2,1.46,0,2.75.37,3.42.71l-.56,1.91c-.59-.34-1.51-.65-2.86-.65-3.11,0-4.8,2.29-4.81,5.13,0,3.14,2.01,5.08,4.7,5.09,1.4,0,2.33-.36,3.03-.67l.42,1.85Z"/>
      <path class="cls-1" d="m271.61,174.38c0,5.02-3.49,7.2-6.77,7.2-3.67,0-6.5-2.7-6.5-7,0-4.54,2.99-7.21,6.74-7.2s6.53,2.84,6.53,7Zm-10.77.12c0,2.97,1.7,5.22,4.12,5.22s4.13-2.21,4.13-5.27c0-2.3-1.14-5.22-4.06-5.22s-4.18,2.69-4.19,5.27Z"/>
      <path class="cls-1" d="m274.73,171.39c0-1.4-.02-2.55-.11-3.68h2.19s.14,2.25.14,2.25h.06c.68-1.29,2.25-2.55,4.49-2.55,1.88,0,4.8,1.13,4.79,5.79v8.11s-2.48,0-2.48,0v-7.83c.02-2.19-.79-4.01-3.12-4.02-1.63,0-2.89,1.15-3.31,2.52-.11.31-.17.73-.17,1.15v8.16s-2.48,0-2.48,0l.02-9.9Z"/>
      <path class="cls-1" d="m302.59,174.43c0,5.02-3.49,7.2-6.77,7.2-3.67,0-6.5-2.7-6.5-7,0-4.54,2.99-7.21,6.74-7.2,3.9,0,6.53,2.84,6.53,7Zm-10.77.12c0,2.97,1.7,5.22,4.12,5.22s4.13-2.21,4.13-5.27c0-2.3-1.14-5.22-4.06-5.22s-4.18,2.69-4.19,5.27Z"/>
      <path class="cls-1" d="m305.71,171.44c0-1.4-.02-2.55-.11-3.68h2.16s.11,2.19.11,2.19h.08c.76-1.29,2.02-2.49,4.27-2.49,1.85,0,3.25,1.13,3.84,2.73h.06c.42-.76.96-1.34,1.52-1.77.81-.62,1.71-.95,3-.95,1.8,0,4.46,1.19,4.45,5.9v8s-2.43,0-2.43,0v-7.69c.02-2.61-.93-4.18-2.93-4.18-1.4,0-2.5,1.03-2.92,2.24-.11.34-.2.79-.2,1.23v8.39s-2.43,0-2.43,0v-8.14c.02-2.16-.93-3.73-2.81-3.74-1.54,0-2.67,1.23-3.06,2.46-.14.36-.2.79-.2,1.21v8.19s-2.43,0-2.43,0l.02-9.9Z"/>
      <path class="cls-1" d="m331.87,163.99c.03.84-.59,1.51-1.57,1.51-.87,0-1.49-.68-1.48-1.52s.65-1.54,1.55-1.54,1.51.68,1.51,1.55Zm-2.78,17.39l.02-13.58h2.47s-.02,13.58-.02,13.58h-2.47Z"/>
      <path class="cls-1" d="m337.04,175.05c.05,3.34,2.18,4.72,4.65,4.72,1.77,0,2.83-.3,3.76-.69l.42,1.77c-.87.39-2.36.84-4.52.84-4.18,0-6.67-2.76-6.67-6.86,0-4.1,2.42-7.32,6.38-7.31,4.43,0,5.6,3.91,5.6,6.41,0,.51-.06.9-.09,1.15l-9.54-.02Zm7.24-1.75c.03-1.57-.64-4.01-3.42-4.02-2.5,0-3.59,2.29-3.79,4.01h7.21Z"/>
      <path class="cls-1" d="m349.38,178.89c.73.48,2.02.99,3.25.99,1.8,0,2.64-.89,2.64-2.02,0-1.18-.7-1.82-2.52-2.5-2.44-.87-3.59-2.22-3.58-3.85,0-2.19,1.77-3.98,4.69-3.98,1.38,0,2.58.4,3.34.85l-.62,1.79c-.53-.34-1.51-.79-2.78-.79-1.46,0-2.27.84-2.28,1.85,0,1.12.81,1.63,2.58,2.3,2.35.9,3.56,2.08,3.56,4.1,0,2.38-1.86,4.07-5.08,4.06-1.49,0-2.86-.37-3.81-.93l.62-1.88Z"/>
      <path class="cls-1" d="m378.53,161.54l-.03,16.41c0,1.21.02,2.58.11,3.51h-2.22s-.11-2.36-.11-2.36h-.06c-.76,1.51-2.42,2.66-4.63,2.66-3.28,0-5.8-2.79-5.8-6.91-.02-4.52,2.79-7.29,6.1-7.28,2.08,0,3.48.99,4.09,2.08h.06s.01-8.11.01-8.11h2.47Zm-2.49,11.86c0-.31-.03-.73-.11-1.04-.36-1.57-1.71-2.86-3.56-2.87-2.55,0-4.07,2.24-4.08,5.24,0,2.75,1.34,5.02,4,5.03,1.66,0,3.17-1.09,3.62-2.94.08-.34.11-.67.11-1.07v-2.36Z"/>
      <path class="cls-1" d="m385.91,162.25c-.65,2.36-1.86,5.36-2.65,6.64l-1.57.19c.62-1.66,1.35-4.57,1.67-6.59l2.55-.25Z"/>
      <path class="cls-1" d="m387.79,175.13c.05,3.34,2.18,4.72,4.65,4.72,1.77,0,2.83-.3,3.76-.69l.42,1.77c-.87.39-2.36.84-4.52.84-4.18,0-6.67-2.76-6.67-6.86s2.43-7.32,6.38-7.31c4.43,0,5.6,3.91,5.6,6.41,0,.51-.06.9-.09,1.15l-9.54-.02Zm7.24-1.75c.03-1.57-.64-4.01-3.42-4.02-2.5,0-3.59,2.29-3.79,4.01h7.21Zm.61-11.33l-3.43,4.01h-1.77s2.48-4.01,2.48-4.01h2.72Z"/>
      <path class="cls-1" d="m400.48,171.59c0-1.4-.02-2.55-.11-3.68h2.19s.14,2.25.14,2.25h.06c.68-1.29,2.25-2.55,4.49-2.55,1.88,0,4.8,1.13,4.79,5.79v8.11s-2.48,0-2.48,0v-7.83c.02-2.19-.79-4.01-3.12-4.02-1.63,0-2.89,1.15-3.31,2.52-.11.31-.17.73-.17,1.15v8.16s-2.48,0-2.48,0l.02-9.9Z"/>
      <path class="cls-1" d="m417.42,175.18c.05,3.34,2.18,4.72,4.65,4.72,1.77,0,2.83-.3,3.76-.69l.42,1.77c-.87.39-2.36.84-4.52.84-4.18,0-6.67-2.76-6.67-6.86s2.43-7.32,6.38-7.31c4.43,0,5.6,3.91,5.6,6.41,0,.51-.06.9-.09,1.15l-9.54-.02Zm7.24-1.75c.03-1.57-.64-4.01-3.42-4.02-2.5,0-3.59,2.29-3.79,4.01h7.21Z"/>
      <path class="cls-1" d="m430.11,172.2c0-1.6-.02-2.97-.1-4.24h2.16s.08,2.67.08,2.67h.11c.62-1.82,2.11-2.97,3.76-2.97.28,0,.48.03.7.09v2.33c-.26-.06-.51-.08-.85-.09-1.74,0-2.98,1.31-3.32,3.16-.06.34-.11.73-.11,1.15v7.24s-2.45,0-2.45,0l.02-9.34Z"/>
      <path class="cls-1" d="m450.76,168c-.06.98-.12,2.08-.12,3.73v7.88c-.02,3.11-.64,5.02-1.96,6.2-1.32,1.23-3.23,1.62-4.94,1.62s-3.42-.4-4.51-1.13l.62-1.88c.9.56,2.3,1.07,3.98,1.07,2.52,0,4.38-1.31,4.38-4.73v-1.51s-.05,0-.05,0c-.76,1.26-2.22,2.27-4.32,2.26-3.37,0-5.78-2.87-5.77-6.63,0-4.6,3.01-7.21,6.13-7.2,2.36,0,3.65,1.24,4.23,2.36h.06s.12-2.05.12-2.05h2.16Zm-2.56,5.35c0-.42-.03-.79-.14-1.12-.45-1.43-1.65-2.61-3.45-2.61-2.36,0-4.04,1.99-4.05,5.13,0,2.66,1.34,4.88,4,4.89,1.52,0,2.89-.95,3.43-2.52.14-.42.2-.9.2-1.32v-2.44Z"/>
      <path class="cls-1" d="m457.33,164.2c.03.84-.59,1.51-1.57,1.51-.87,0-1.49-.68-1.48-1.52s.65-1.54,1.55-1.54,1.51.68,1.51,1.55Zm-2.78,17.39l.02-13.58h2.47s-.02,13.58-.02,13.58h-2.47Z"/>
      <path class="cls-1" d="m462.5,175.26c.05,3.34,2.18,4.72,4.65,4.72,1.77,0,2.83-.3,3.76-.69l.42,1.77c-.87.39-2.36.84-4.52.84-4.18,0-6.67-2.76-6.67-6.86s2.42-7.32,6.38-7.31c4.43,0,5.6,3.91,5.6,6.41,0,.51-.06.9-.09,1.15l-9.54-.02Zm7.24-1.75c.03-1.57-.64-4.01-3.42-4.02-2.5,0-3.59,2.29-3.79,4.01h7.21Z"/>
    </g>
    <g>
      <path class="cls-1" d="m237.86,28.28c0-.33.02-.66,0-.98-.06-.77-.78-1.23-1.44-.84-.68.4-1.36.85-1.88,1.43-1.72,1.9-2.06,4.17-1.49,6.6.41,1.74,1.38,3.17,2.5,4.54.85,1.03,1.65,2.11,2.34,3.26.72,1.2.68,2.56.47,3.91-.08.49-.12.98.35,1.32.44.32.89.19,1.32-.04,2.32-1.22,3.53-3.18,3.73-5.76.19-2.46-.64-4.64-2.11-6.57-.76-1-1.64-1.92-2.46-2.88-.98-1.14-1.38-2.49-1.33-3.98Z"/>
      <path class="cls-1" d="m248.89,0c.6.29.78.75.7,1.41-.3,2.46-.36,4.91.21,7.35.41,1.77,1.3,3.31,2.44,4.69,1.5,1.8,3.11,3.49,4.62,5.29,2.64,3.15,4.5,6.71,5.24,10.77.78,4.24.27,8.3-2.03,12.03-1.99,3.22-4.8,5.35-8.48,6.32-.09.02-.17.07-.25.1h-.56c-.74-.45-.84-.66-.65-1.54.4-1.82.65-3.65.67-5.51.03-3.04-1.09-5.67-2.87-8.04-1.43-1.91-2.95-3.75-4.46-5.6-2.32-2.83-4.02-5.96-4.75-9.57-.63-3.1-.53-6.18.63-9.16,1.6-4.11,4.42-6.99,8.65-8.39.11-.04.22-.1.33-.15.19,0,.37,0,.56,0Z"/>
      <path class="cls-1" d="m237.86,28.28c-.05,1.49.35,2.83,1.33,3.98.82.96,1.7,1.88,2.46,2.88,1.47,1.93,2.3,4.11,2.11,6.57-.2,2.58-1.41,4.54-3.73,5.76-.43.23-.88.36-1.32.04-.47-.34-.43-.83-.35-1.32.21-1.35.25-2.72-.47-3.91-.68-1.14-1.49-2.23-2.34-3.26-1.13-1.36-2.1-2.8-2.5-4.54-.57-2.43-.23-4.7,1.49-6.6.52-.58,1.21-1.03,1.88-1.43.66-.39,1.38.07,1.44.84.02.33,0,.65,0,.98Z"/>
    </g>
  </g>
</svg>