<svg width="32" height="25" viewBox="0 0 32 25" fill="none" xmlns="http://www.w3.org/2000/svg">
<path d="M16.9567 6.27961C16.9202 5.42789 17.0719 4.5786 17.401 3.79218C17.7301 3.00575 18.2285 2.30153 18.8607 1.72961L18.8657 1.72561C20.1747 0.565009 21.8793 -0.0485642 23.6277 0.0116119H23.6167C24.6735 -0.0455322 25.7299 0.130736 26.7109 0.527897C27.6918 0.925058 28.5733 1.53337 29.2927 2.30961L29.2967 2.31361C30.7389 4.02502 31.4745 6.22182 31.3537 8.45661L31.3547 8.43561C31.4217 10.7564 30.9904 13.0646 30.0897 15.2046L30.1297 15.0976C29.4106 16.7754 28.4128 18.3196 27.1787 19.6646L27.1897 19.6526C26.1701 20.7587 24.9887 21.7038 23.6857 22.4556L23.6137 22.4936C22.6282 23.0621 21.5997 23.5526 20.5377 23.9606L20.3817 24.0136L17.2477 18.7236C18.55 18.1982 19.6932 17.3428 20.5647 16.2416L20.5777 16.2246C21.4455 15.1909 21.9898 13.9246 22.1427 12.5836L22.1457 12.5516C21.4637 12.5345 20.7931 12.3735 20.1777 12.0792C19.5623 11.7849 19.016 11.3638 18.5747 10.8436L18.5687 10.8366C17.4466 9.5872 16.8661 7.9436 16.9547 6.26661L16.9537 6.28161L16.9567 6.27961ZM0.0086956 6.27961C-0.0273723 5.4277 0.124613 4.57829 0.453854 3.79174C0.783095 3.0052 1.28151 2.3008 1.91369 1.72861L1.9187 1.72461C3.22738 0.563561 4.93226 -0.0500809 6.68069 0.0106106H6.66969C7.72651 -0.0468114 8.78299 0.129332 9.76402 0.52651C10.745 0.923689 11.6265 1.53215 12.3457 2.30861L12.3497 2.31361C13.7925 4.02507 14.5282 6.22243 14.4067 8.45761L14.4077 8.43661C14.4747 10.7574 14.0434 13.0656 13.1427 15.2056L13.1827 15.0986C12.4639 16.7762 11.4669 18.3202 10.2337 19.6656L10.2447 19.6536C9.22475 20.7597 8.04299 21.7048 6.73969 22.4566L6.6677 22.4946C5.68242 23.0635 4.65392 23.554 3.5917 23.9616L3.4357 24.0146L0.302694 18.7246C1.6052 18.1985 2.74835 17.3425 3.6197 16.2406L3.63269 16.2236C4.5005 15.1899 5.04479 13.9236 5.19769 12.5826L5.2007 12.5506C4.51901 12.5336 3.84862 12.3727 3.23352 12.0783C2.61843 11.784 2.07255 11.3628 1.63169 10.8426L1.62569 10.8356C0.502373 9.58715 -0.0792419 7.94374 0.0086956 6.26661L0.00769424 6.28161L0.0086956 6.27961Z" fill="white"/>
</svg>
