<svg width="303" height="146" viewBox="0 0 303 146" fill="none" xmlns="http://www.w3.org/2000/svg">
<path d="M0 123.08V118.09H12.99V124.08C12.99 130.32 15.74 132.57 20.11 132.57C24.48 132.57 27.23 130.32 27.23 123.83C27.23 116.59 24.48 111.97 15.49 104.1C3.99 93.98 0.25 86.86 0.25 76.87C0.25 63.13 7.37 55.14 20.73 55.14C34.09 55.14 40.71 63.13 40.71 77.12V80.74H27.72V76.24C27.72 70 25.22 67.62 20.85 67.62C16.48 67.62 13.98 69.99 13.98 75.99C13.98 82.36 16.85 86.98 25.84 94.85C37.33 104.97 40.95 111.96 40.95 122.82C40.95 137.06 33.71 145.05 20.22 145.05C6.73 145.05 0 137.07 0 123.08Z" fill="url(#paint0_linear_10_3)"/>
<path d="M47.82 123.08V77.12C47.82 63.13 55.19 55.14 68.67 55.14C82.15 55.14 89.52 63.13 89.52 77.12V123.08C89.52 137.07 82.15 145.06 68.67 145.06C55.19 145.06 47.82 137.07 47.82 123.08ZM75.79 123.95V76.25C75.79 70.01 73.04 67.63 68.67 67.63C64.3 67.63 61.55 70 61.55 76.25V123.95C61.55 130.19 64.3 132.57 68.67 132.57C73.04 132.57 75.79 130.2 75.79 123.95Z" fill="url(#paint1_linear_10_3)"/>
<path d="M98.77 56.39H112.51V131.32H135.11V143.81H98.77V56.39Z" fill="url(#paint2_linear_10_3)"/>
<path d="M141.73 56.39H179.19V68.88H155.46V91.98H174.32V104.47H155.46V131.32H179.19V143.81H141.73V56.39Z" fill="url(#paint3_linear_10_3)"/>
<path d="M187.06 56.39H204.29L217.65 108.72H217.9V56.39H230.14V143.81H216.03L199.55 80H199.3V143.81H187.06V56.39Z" fill="url(#paint4_linear_10_3)"/>
<path d="M240.51 56.39H254.25V143.81H240.51V56.39Z" fill="url(#paint5_linear_10_3)"/>
<path d="M261.98 123.08V118.09H274.97V124.08C274.97 130.32 277.72 132.57 282.09 132.57C286.46 132.57 289.21 130.32 289.21 123.83C289.21 116.59 286.46 111.97 277.47 104.1C265.98 93.98 262.23 86.87 262.23 76.88C262.23 63.14 269.35 55.15 282.71 55.15C296.07 55.15 302.69 63.14 302.69 77.13V80.75H289.7V76.25C289.7 70.01 287.2 67.63 282.83 67.63C278.46 67.63 275.96 70 275.96 76C275.96 82.37 278.83 86.99 287.82 94.86C299.31 104.98 302.93 111.97 302.93 122.83C302.93 137.07 295.69 145.06 282.2 145.06C268.71 145.06 261.97 137.07 261.97 123.08H261.98Z" fill="url(#paint6_linear_10_3)"/>
<path d="M237.45 28.3C237.45 27.97 237.47 27.64 237.45 27.32C237.39 26.55 236.67 26.09 236.01 26.48C235.33 26.88 234.65 27.34 234.13 27.91C232.41 29.81 232.08 32.08 232.65 34.51C233.06 36.25 234.03 37.68 235.16 39.04C236.01 40.07 236.82 41.15 237.5 42.29C238.22 43.49 238.19 44.85 237.98 46.2C237.9 46.69 237.86 47.18 238.33 47.52C238.77 47.84 239.22 47.71 239.65 47.48C241.97 46.25 243.18 44.29 243.37 41.71C243.55 39.25 242.72 37.07 241.25 35.14C240.49 34.14 239.61 33.22 238.78 32.27C237.8 31.13 237.39 29.78 237.45 28.29V28.3Z" fill="url(#paint7_linear_10_3)"/>
<path d="M248.44 0C249.04 0.29 249.22 0.75 249.14 1.41C248.84 3.87 248.79 6.32 249.36 8.76C249.78 10.53 250.66 12.07 251.81 13.44C253.31 15.23 254.93 16.93 256.44 18.72C259.08 21.86 260.95 25.42 261.7 29.48C262.49 33.72 261.99 37.78 259.69 41.51C257.71 44.73 254.89 46.87 251.22 47.84C251.13 47.86 251.05 47.91 250.97 47.94H250.41C249.67 47.5 249.57 47.28 249.76 46.41C250.16 44.59 250.4 42.76 250.42 40.9C250.44 37.86 249.32 35.23 247.54 32.86C246.11 30.95 244.59 29.11 243.07 27.27C240.75 24.44 239.04 21.31 238.3 17.71C237.67 14.61 237.76 11.53 238.92 8.55C240.51 4.44 243.33 1.56 247.56 0.15C247.67 0.11 247.78 0.05 247.89 0C248.08 0 248.26 0 248.45 0L248.44 0Z" fill="url(#paint8_linear_10_3)"/>
<path d="M237.45 28.3C237.4 29.79 237.8 31.13 238.78 32.28C239.6 33.24 240.48 34.15 241.25 35.15C242.72 37.08 243.56 39.25 243.37 41.72C243.18 44.3 241.97 46.26 239.65 47.49C239.22 47.72 238.77 47.85 238.33 47.53C237.86 47.19 237.9 46.7 237.98 46.21C238.19 44.86 238.22 43.49 237.5 42.3C236.81 41.16 236.01 40.07 235.16 39.05C234.03 37.69 233.06 36.26 232.65 34.52C232.08 32.09 232.41 29.82 234.13 27.92C234.65 27.34 235.34 26.89 236.01 26.49C236.67 26.1 237.39 26.56 237.45 27.33C237.48 27.66 237.45 27.98 237.45 28.31V28.3Z" fill="url(#paint9_linear_10_3)"/>
<defs>
<linearGradient id="paint0_linear_10_3" x1="41.53" y1="136.73" x2="-0.699999" y2="63.6" gradientUnits="userSpaceOnUse">
<stop stop-color="#012268"/>
<stop offset="0.21" stop-color="#00266C" stop-opacity="0.99"/>
<stop offset="0.41" stop-color="#00337A" stop-opacity="0.98"/>
<stop offset="0.6" stop-color="#004992" stop-opacity="0.95"/>
<stop offset="0.79" stop-color="#0068B3" stop-opacity="0.91"/>
<stop offset="0.83" stop-color="#0071BC" stop-opacity="0.9"/>
</linearGradient>
<linearGradient id="paint1_linear_10_3" x1="89.88" y1="136.82" x2="47.48" y2="63.39" gradientUnits="userSpaceOnUse">
<stop stop-color="#012268"/>
<stop offset="0.21" stop-color="#00266C" stop-opacity="0.99"/>
<stop offset="0.41" stop-color="#00337A" stop-opacity="0.98"/>
<stop offset="0.6" stop-color="#004992" stop-opacity="0.95"/>
<stop offset="0.79" stop-color="#0068B3" stop-opacity="0.91"/>
<stop offset="0.83" stop-color="#0071BC" stop-opacity="0.9"/>
</linearGradient>
<linearGradient id="paint2_linear_10_3" x1="131.94" y1="145.64" x2="85" y2="64.34" gradientUnits="userSpaceOnUse">
<stop stop-color="#012268"/>
<stop offset="0.21" stop-color="#00266C" stop-opacity="0.99"/>
<stop offset="0.41" stop-color="#00337A" stop-opacity="0.98"/>
<stop offset="0.6" stop-color="#004992" stop-opacity="0.95"/>
<stop offset="0.79" stop-color="#0068B3" stop-opacity="0.91"/>
<stop offset="0.83" stop-color="#0071BC" stop-opacity="0.9"/>
</linearGradient>
<linearGradient id="paint3_linear_10_3" x1="184.07" y1="140.99" x2="136.85" y2="59.21" gradientUnits="userSpaceOnUse">
<stop stop-color="#012268"/>
<stop offset="0.21" stop-color="#00266C" stop-opacity="0.99"/>
<stop offset="0.41" stop-color="#00337A" stop-opacity="0.98"/>
<stop offset="0.6" stop-color="#004992" stop-opacity="0.95"/>
<stop offset="0.79" stop-color="#0068B3" stop-opacity="0.91"/>
<stop offset="0.83" stop-color="#0071BC" stop-opacity="0.9"/>
</linearGradient>
<linearGradient id="paint4_linear_10_3" x1="232.91" y1="142.21" x2="184.29" y2="57.99" gradientUnits="userSpaceOnUse">
<stop stop-color="#012268"/>
<stop offset="0.21" stop-color="#00266C" stop-opacity="0.99"/>
<stop offset="0.41" stop-color="#00337A" stop-opacity="0.98"/>
<stop offset="0.6" stop-color="#004992" stop-opacity="0.95"/>
<stop offset="0.79" stop-color="#0068B3" stop-opacity="0.91"/>
<stop offset="0.83" stop-color="#0071BC" stop-opacity="0.9"/>
</linearGradient>
<linearGradient id="paint5_linear_10_3" x1="268.02" y1="135.86" x2="226.74" y2="64.34" gradientUnits="userSpaceOnUse">
<stop stop-color="#012268"/>
<stop offset="0.21" stop-color="#00266C" stop-opacity="0.99"/>
<stop offset="0.41" stop-color="#00337A" stop-opacity="0.98"/>
<stop offset="0.6" stop-color="#004992" stop-opacity="0.95"/>
<stop offset="0.79" stop-color="#0068B3" stop-opacity="0.91"/>
<stop offset="0.83" stop-color="#0071BC" stop-opacity="0.9"/>
</linearGradient>
<linearGradient id="paint6_linear_10_3" x1="303.51" y1="136.73" x2="261.29" y2="63.6" gradientUnits="userSpaceOnUse">
<stop stop-color="#012268"/>
<stop offset="0.21" stop-color="#00266C" stop-opacity="0.99"/>
<stop offset="0.41" stop-color="#00337A" stop-opacity="0.98"/>
<stop offset="0.6" stop-color="#004992" stop-opacity="0.95"/>
<stop offset="0.79" stop-color="#0068B3" stop-opacity="0.91"/>
<stop offset="0.83" stop-color="#0071BC" stop-opacity="0.9"/>
</linearGradient>
<linearGradient id="paint7_linear_10_3" x1="232.39" y1="37.03" x2="243.4" y2="37.03" gradientUnits="userSpaceOnUse">
<stop stop-color="#E63C02" stop-opacity="0.9"/>
<stop offset="0.47" stop-color="#E63E02" stop-opacity="0.9"/>
<stop offset="0.64" stop-color="#E74505" stop-opacity="0.9"/>
<stop offset="0.76" stop-color="#EA5209" stop-opacity="0.9"/>
<stop offset="0.86" stop-color="#EE650F" stop-opacity="0.9"/>
<stop offset="0.94" stop-color="#F27D17" stop-opacity="0.9"/>
<stop offset="1" stop-color="#F7931E" stop-opacity="0.9"/>
</linearGradient>
<linearGradient id="paint8_linear_10_3" x1="237.9" y1="23.97" x2="262.05" y2="23.97" gradientUnits="userSpaceOnUse">
<stop stop-color="#E63C02" stop-opacity="0.9"/>
<stop offset="0.47" stop-color="#E63E02" stop-opacity="0.9"/>
<stop offset="0.64" stop-color="#E74505" stop-opacity="0.9"/>
<stop offset="0.76" stop-color="#EA5209" stop-opacity="0.9"/>
<stop offset="0.86" stop-color="#EE650F" stop-opacity="0.9"/>
<stop offset="0.94" stop-color="#F27D17" stop-opacity="0.9"/>
<stop offset="1" stop-color="#F7931E" stop-opacity="0.9"/>
</linearGradient>
<linearGradient id="paint9_linear_10_3" x1="232.39" y1="37.03" x2="0.810003" y2="37.03" gradientUnits="userSpaceOnUse">
<stop stop-color="#E63C02" stop-opacity="0.9"/>
<stop offset="0.47" stop-color="#E63E02" stop-opacity="0.9"/>
<stop offset="0.64" stop-color="#E74505" stop-opacity="0.9"/>
<stop offset="0.76" stop-color="#EA5209" stop-opacity="0.9"/>
<stop offset="0.86" stop-color="#EE650F" stop-opacity="0.9"/>
<stop offset="0.94" stop-color="#F27D17" stop-opacity="0.9"/>
<stop offset="1" stop-color="#F7931E" stop-opacity="0.9"/>
</linearGradient>
</defs>
</svg>
