<?xml version="1.0" encoding="UTF-8"?>
<svg id="Calque_2" data-name="Calque 2" xmlns="http://www.w3.org/2000/svg" viewBox="0 0 350 187.43">
  <defs>
    <style>
      .cls-1 {
        fill: #fff;
        stroke-width: 0px;
      }
    </style>
  </defs>
  <g id="Logo_variantes" data-name="Logo variantes">
    <path class="cls-1" d="m.25,122.67v-4.99s13,.02,13,.02v5.99c-.02,6.24,2.72,8.5,7.09,8.5s7.12-2.24,7.13-8.73c.01-7.24-2.73-11.87-11.71-19.75C4.3,93.58.56,86.46.58,76.47c.02-13.74,7.15-21.72,20.52-21.7,13.36.02,19.97,8.02,19.94,22.01v3.62s-12.99-.02-12.99-.02v-4.5c.02-6.24-2.48-8.62-6.85-8.63-4.37,0-6.87,2.36-6.88,8.36-.01,6.37,2.85,10.99,11.83,18.88,11.47,10.13,15.08,17.13,15.06,28-.02,14.24-7.28,22.22-20.77,22.19S.23,136.66.25,122.67Z"/>
    <path class="cls-1" d="m48.08,122.75l.07-45.96c.02-13.99,7.4-21.97,20.89-21.94s20.84,8.03,20.82,22.01l-.07,45.96c-.02,13.99-7.4,21.97-20.89,21.95s-20.84-8.03-20.82-22.01Zm27.97.92l.08-47.7c.01-6.24-2.73-8.62-7.1-8.63s-7.12,2.36-7.13,8.6l-.08,47.7c-.01,6.24,2.73,8.62,7.1,8.63s7.12-2.36,7.13-8.61Z"/>
    <path class="cls-1" d="m99.14,56.15l13.74.02-.12,74.93,22.6.04-.02,12.49-36.34-.06.14-87.42Z"/>
    <path class="cls-1" d="m142.09,56.22l37.46.06-.02,12.49-23.73-.04-.04,23.1,18.86.03-.02,12.49-18.86-.03-.04,26.85,23.73.04-.02,12.49-37.46-.06.14-87.42Z"/>
    <path class="cls-1" d="m187.42,56.29l17.23.03,13.28,52.35h.25s.09-52.33.09-52.33l12.24.02-.14,87.42-14.11-.02-16.38-63.84h-.25s-.1,63.81-.1,63.81l-12.24-.02.14-87.42Z"/>
    <path class="cls-1" d="m240.88,56.38l13.74.02-.14,87.42-13.74-.02.14-87.42Z"/>
    <path class="cls-1" d="m262.24,123.1v-4.99s13,.02,13,.02v5.99c-.02,6.24,2.72,8.5,7.09,8.5s7.12-2.24,7.13-8.73c.01-7.24-2.73-11.87-11.71-19.75-11.47-10.13-15.21-17.26-15.19-27.25.02-13.74,7.15-21.72,20.52-21.7,13.36.02,19.97,8.02,19.95,22.01v3.62s-12.99-.02-12.99-.02v-4.5c.02-6.24-2.48-8.62-6.85-8.63s-6.87,2.36-6.88,8.36c-.01,6.37,2.85,10.99,11.83,18.88,11.47,10.13,15.08,17.13,15.06,28-.02,14.24-7.28,22.22-20.77,22.19s-20.22-8.03-20.19-22.01Z"/>
  </g>
</svg>